<svg width="10" height="10" viewBox="0 0 10 10" fill="none" xmlns="http://www.w3.org/2000/svg">
<g clip-path="url(#clip0_2_82)">
<path d="M9.6875 9.375H0.625V8.125H1.25C1.33288 8.125 1.41237 8.09208 1.47097 8.03347C1.52958 7.97487 1.5625 7.89538 1.5625 7.8125C1.5625 7.72962 1.52958 7.65013 1.47097 7.59153C1.41237 7.53292 1.33288 7.5 1.25 7.5H0.625V6.5625C0.70788 6.5625 0.787366 6.52958 0.845971 6.47097C0.904576 6.41237 0.9375 6.33288 0.9375 6.25C0.9375 6.16712 0.904576 6.08763 0.845971 6.02903C0.787366 5.97042 0.70788 5.9375 0.625 5.9375V5H1.25C1.33288 5 1.41237 4.96708 1.47097 4.90847C1.52958 4.84987 1.5625 4.77038 1.5625 4.6875C1.5625 4.60462 1.52958 4.52513 1.47097 4.46653C1.41237 4.40792 1.33288 4.375 1.25 4.375H0.625V3.4375C0.70788 3.4375 0.787366 3.40458 0.845971 3.34597C0.904576 3.28737 0.9375 3.20788 0.9375 3.125C0.9375 3.04212 0.904576 2.96263 0.845971 2.90403C0.787366 2.84542 0.70788 2.8125 0.625 2.8125V1.875H1.25C1.33288 1.875 1.41237 1.84208 1.47097 1.78347C1.52958 1.72487 1.5625 1.64538 1.5625 1.5625C1.5625 1.47962 1.52958 1.40013 1.47097 1.34153C1.41237 1.28292 1.33288 1.25 1.25 1.25H0.625V0.3125C0.625 0.22962 0.592076 0.150134 0.533471 0.0915291C0.474866 0.032924 0.39538 0 0.3125 0C0.22962 0 0.150134 0.032924 0.0915291 0.0915291C0.032924 0.150134 0 0.22962 0 0.3125L0 9.375C0 9.71969 0.280312 10 0.625 10H9.6875C9.77038 10 9.84987 9.96708 9.90847 9.90847C9.96708 9.84987 10 9.77038 10 9.6875C10 9.60462 9.96708 9.52513 9.90847 9.46653C9.84987 9.40792 9.77038 9.375 9.6875 9.375Z" fill="url(#paint0_linear_2_82)"/>
<path d="M8.75 5.3125C8.83288 5.3125 8.91236 5.27958 8.97097 5.22097C9.02957 5.16237 9.0625 5.08288 9.0625 5V3.4375C9.0625 3.41703 9.06031 3.39641 9.0564 3.37625C9.05437 3.36687 9.05093 3.35828 9.04828 3.34922C9.04515 3.33875 9.04281 3.32813 9.03859 3.31797C9.03406 3.30734 9.02796 3.2975 9.02234 3.2875C9.01812 3.27969 9.01468 3.27156 9.00984 3.26438C8.98682 3.23003 8.95731 3.20052 8.92296 3.1775C8.91562 3.17266 8.9075 3.16922 8.89984 3.165C8.88984 3.15953 8.88 3.15344 8.86937 3.14875C8.85921 3.14469 8.84859 3.14219 8.83812 3.13906C8.82906 3.13641 8.82046 3.13297 8.81109 3.13094C8.79095 3.12708 8.7705 3.12509 8.75 3.125H7.1875C7.10461 3.125 7.02513 3.15792 6.96652 3.21653C6.90792 3.27513 6.87499 3.35462 6.87499 3.4375C6.87499 3.52038 6.90792 3.59987 6.96652 3.65847C7.02513 3.71708 7.10461 3.75 7.1875 3.75H7.99562L4.99999 6.74563L4.28343 6.02906C4.22483 5.97048 4.14536 5.93757 4.06249 5.93757C3.97963 5.93757 3.90016 5.97048 3.84156 6.02906L2.27906 7.59156C2.24921 7.62039 2.2254 7.65487 2.20903 7.693C2.19265 7.73113 2.18403 7.77213 2.18367 7.81363C2.18331 7.85512 2.19121 7.89627 2.20693 7.93467C2.22264 7.97308 2.24584 8.00797 2.27518 8.03731C2.30453 8.06665 2.33942 8.08986 2.37782 8.10557C2.41623 8.12128 2.45738 8.12919 2.49887 8.12883C2.54036 8.12847 2.58137 8.11985 2.6195 8.10347C2.65762 8.08709 2.69211 8.06329 2.72093 8.03344L4.06249 6.69188L4.77906 7.40844C4.83766 7.46702 4.91713 7.49993 4.99999 7.49993C5.08286 7.49993 5.16233 7.46702 5.22093 7.40844L8.4375 4.19187V5C8.4375 5.08288 8.47042 5.16237 8.52902 5.22097C8.58763 5.27958 8.66711 5.3125 8.75 5.3125Z" fill="url(#paint1_linear_2_82)"/>
</g>
<defs>
<linearGradient id="paint0_linear_2_82" x1="5" y1="0" x2="5" y2="10" gradientUnits="userSpaceOnUse">
<stop stop-color="#FFE603"/>
<stop offset="1" stop-color="#FF9900"/>
</linearGradient>
<linearGradient id="paint1_linear_2_82" x1="5.62308" y1="3.125" x2="5.62308" y2="8.12884" gradientUnits="userSpaceOnUse">
<stop stop-color="#FFE603"/>
<stop offset="1" stop-color="#FF9900"/>
</linearGradient>
<clipPath id="clip0_2_82">
<rect width="10" height="10" fill="white"/>
</clipPath>
</defs>
</svg>
