<svg width="42" height="43" viewBox="0 0 42 43" fill="none" xmlns="http://www.w3.org/2000/svg">
<g clip-path="url(#clip0_7_210)">
<path d="M21 43.0001C32.598 43.0001 42 33.3742 42 21.5001C42 9.62593 32.598 0 21 0C9.40202 0 0 9.62593 0 21.5001C0 33.3742 9.40202 43.0001 21 43.0001Z" fill="black"/>
<path fill-rule="evenodd" clip-rule="evenodd" d="M12.25 31.3398V27.1411C12.25 23.5202 14.9817 20.6042 18.375 20.6042H23.625C27.0191 20.6042 29.75 23.5202 29.75 27.1411V31.3398H12.25Z" fill="white"/>
<path d="M20.9834 19.2066C23.39 19.2066 25.3409 17.2012 25.3409 14.7275C25.3409 12.2537 23.39 10.2483 20.9834 10.2483C18.5768 10.2483 16.6259 12.2537 16.6259 14.7275C16.6259 17.2012 18.5768 19.2066 20.9834 19.2066Z" fill="white"/>
</g>
<defs>
<clipPath id="clip0_7_210">
<rect width="42" height="43" fill="white"/>
</clipPath>
</defs>
</svg>
