<svg width="42" height="43" viewBox="0 0 42 43" fill="none" xmlns="http://www.w3.org/2000/svg">
<g clip-path="url(#clip0_9_163)">
<path d="M21 43.0001C32.598 43.0001 42 33.3742 42 21.5001C42 9.62593 32.598 0 21 0C9.40202 0 0 9.62593 0 21.5001C0 33.3742 9.40202 43.0001 21 43.0001Z" fill="black"/>
<path fill-rule="evenodd" clip-rule="evenodd" d="M12.25 31.3401V27.1414C12.25 23.5204 14.9817 20.6045 18.375 20.6045H23.625C27.0191 20.6045 29.75 23.5204 29.75 27.1414V31.3401H12.25Z" fill="white"/>
<path d="M20.9834 19.2069C23.39 19.2069 25.3409 17.2015 25.3409 14.7277C25.3409 12.2539 23.39 10.2485 20.9834 10.2485C18.5768 10.2485 16.6259 12.2539 16.6259 14.7277C16.6259 17.2015 18.5768 19.2069 20.9834 19.2069Z" fill="white"/>
</g>
<defs>
<clipPath id="clip0_9_163">
<rect width="42" height="43" fill="white"/>
</clipPath>
</defs>
</svg>
