<svg width="14" height="11" viewBox="0 0 14 11" fill="none" xmlns="http://www.w3.org/2000/svg">
<path d="M12.0018 6.33593V10.4513C12.0018 10.5999 11.9468 10.7285 11.8368 10.8371C11.7268 10.9457 11.5966 11 11.446 11H8.11151V7.70772H5.88849V11H2.55396C2.40345 11 2.27319 10.9457 2.1632 10.8371C2.0532 10.7285 1.99821 10.5999 1.99821 10.4513V6.33593C1.99821 6.33022 1.99966 6.32164 2.00255 6.31021C2.00544 6.29878 2.00689 6.2902 2.00689 6.28449L7 2.22058L11.9931 6.28449C11.9989 6.29592 12.0018 6.31307 12.0018 6.33593ZM13.9382 5.74435L13.3999 6.3788C13.3535 6.43024 13.2928 6.46168 13.2175 6.47311H13.1915C13.1162 6.47311 13.0554 6.4531 13.0091 6.41309L7 1.4661L0.990903 6.41309C0.921434 6.45882 0.851964 6.47883 0.782495 6.47311C0.707236 6.46168 0.646451 6.43024 0.600138 6.3788L0.0617505 5.74435C0.0154376 5.68719 -0.00482426 5.62003 0.000964852 5.54287C0.00675396 5.46571 0.0385941 5.40426 0.0964852 5.35853L6.34004 0.222915C6.52529 0.074305 6.74528 0 7 0C7.25472 0 7.47471 0.074305 7.65996 0.222915L9.77877 1.97194V0.300078C9.77877 0.220057 9.80482 0.154326 9.85693 0.102884C9.90903 0.0514419 9.9756 0.025721 10.0567 0.025721H11.7239C11.805 0.025721 11.8715 0.0514419 11.9236 0.102884C11.9757 0.154326 12.0018 0.220057 12.0018 0.300078V3.79813L13.9035 5.35853C13.9614 5.40426 13.9932 5.46571 13.999 5.54287C14.0048 5.62003 13.9846 5.68719 13.9382 5.74435Z" fill="url(#paint0_linear_1_24)"/>
<defs>
<linearGradient id="paint0_linear_1_24" x1="7" y1="0" x2="7" y2="11" gradientUnits="userSpaceOnUse">
<stop stop-color="#00FF38"/>
<stop offset="1" stop-color="#00F0FF"/>
</linearGradient>
</defs>
</svg>
