<svg width="12" height="10" viewBox="0 0 12 10" fill="none" xmlns="http://www.w3.org/2000/svg">
<path d="M10.2873 5.75994V9.50117C10.2873 9.63627 10.2401 9.75318 10.1458 9.85191C10.0516 9.95064 9.9399 10 9.81089 10H6.95272V7.00701H5.04728V10H2.18911C2.0601 10 1.94845 9.95064 1.85417 9.85191C1.75989 9.75318 1.71275 9.63627 1.71275 9.50117V5.75994C1.71275 5.75474 1.71399 5.74695 1.71647 5.73655C1.71895 5.72616 1.72019 5.71837 1.72019 5.71317L6 2.01871L10.2798 5.71317C10.2848 5.72356 10.2873 5.73915 10.2873 5.75994ZM11.9471 5.22214L11.4856 5.79891C11.4459 5.84567 11.3938 5.87425 11.3293 5.88465H11.307C11.2425 5.88465 11.1904 5.86646 11.1507 5.83009L6 1.33281L0.849345 5.83009C0.7898 5.87165 0.730255 5.88984 0.67071 5.88465C0.606203 5.87425 0.554101 5.84567 0.514404 5.79891L0.052929 5.22214C0.0132323 5.17017 -0.00413508 5.10912 0.000827016 5.03897C0.00578911 4.96882 0.0330806 4.91296 0.0827016 4.8714L5.43432 0.20265C5.59311 0.06755 5.78167 0 6 0C6.21833 0 6.40689 0.06755 6.56568 0.20265L8.38181 1.79267V0.272798C8.38181 0.200052 8.40414 0.140296 8.44879 0.0935308C8.49345 0.0467654 8.55052 0.0233827 8.61999 0.0233827H10.0491C10.1185 0.0233827 10.1756 0.0467654 10.2203 0.0935308C10.2649 0.140296 10.2873 0.200052 10.2873 0.272798V3.45284L11.9173 4.8714C11.9669 4.91296 11.9942 4.96882 11.9992 5.03897C12.0041 5.10912 11.9868 5.17017 11.9471 5.22214Z" fill="url(#paint0_linear_9_191)"/>
<defs>
<linearGradient id="paint0_linear_9_191" x1="6" y1="0" x2="6" y2="10" gradientUnits="userSpaceOnUse">
<stop stop-color="#00FF38"/>
<stop offset="1" stop-color="#00F0FF"/>
</linearGradient>
</defs>
</svg>
