<svg width="278" height="23" viewBox="0 0 278 23" fill="none" xmlns="http://www.w3.org/2000/svg">
<path d="M2.46698 9.29217C4.97869 9.54334 8.54585 10.9012 10.8079 12.0322C11.8997 12.5781 12.3958 13.4704 13.5076 13.7246C15.1139 14.0917 16.9349 14.3693 18.5847 14.3693C19.8709 14.3693 20.9084 14.5916 22.1105 14.7118C23.9149 14.8922 25.9461 14.3516 27.6913 14.9334C29.1514 15.4201 30.2522 15.9848 31.4991 16.6862C33.4861 17.8039 36.3314 16.8257 38.3491 17.8346C39.2696 18.2948 40.1922 18.4653 41.1899 18.7211C42.5299 19.0646 43.4523 20.0721 44.7358 20.4537C47.8528 21.3804 51.6376 21.1352 54.8497 21.3402C59.3374 21.6266 63.4648 21.303 67.9051 20.8164C72.4149 20.3221 76.9196 19.3993 81.3432 18.3584C84.5887 17.5948 87.0608 16.4399 90.0871 15.2759C92.7063 14.2685 94.9246 13.0734 97.4812 11.9113C99.1944 11.1326 100.449 10.4746 101.631 8.96982C101.96 8.55163 103.689 7.5824 104.23 7.49907C107.757 6.95652 111.886 8.82476 115.251 7.47892C117.307 6.65645 119.689 6.65598 121.416 5.10156C122.149 4.44159 123.693 3.86927 124.599 3.48978C128.536 1.84174 131.654 3.48978 135.902 3.48978C139.986 3.48978 144.005 3.85243 148.071 3.85243C151.153 3.85243 154.161 3.48978 157.238 3.48978C159.293 3.48978 161.348 3.48978 163.403 3.48978C164.66 3.48978 168.25 3.74098 169.205 3.04654C170.988 1.74958 174.22 2.76448 176.337 2.76448C177.63 2.76448 178.955 2.66299 180.165 3.20772C181.112 3.63368 183.465 3.38535 184.074 3.93302C185.666 5.36557 187.914 6.26794 190.078 7.27745C191.461 7.92294 193.346 8.05308 194.853 8.18408C197.059 8.37593 197.304 9.31394 198.882 10.5413C200.11 11.4967 202.08 11.7183 203.455 12.7575C204.717 13.7105 206.053 13.8702 207.445 14.4499C209.99 15.5104 212.954 16.4831 215.624 16.5452C218.465 16.6112 221.039 18.7166 224.066 18.3383C225.284 18.186 226.856 18.1766 228.015 17.8144C229.326 17.4048 230.741 17.8877 232.044 17.4316C233.254 17.0084 234.884 16.5705 236.174 16.5452C238.062 16.5082 239.551 15.4997 241.372 15.014C242.277 14.7729 246.119 13.9454 246.893 14.9132C247.244 15.3518 248.52 15.2938 249.069 15.5378C249.999 15.9513 250.514 16.6509 251.527 16.9884C254.428 17.9557 257.129 16.5452 259.948 16.5452C260.595 16.5452 260.688 17.8187 261.238 17.9756C262.1 18.2222 263.208 18.5407 264.119 18.3383C264.652 18.2197 266.25 17.4967 266.657 17.0891C267.315 16.4312 268.045 15.8592 268.309 14.9334C268.639 13.7785 271.767 13.2813 272.721 13.2813C273.54 13.2813 276.72 13.009 275.905 12.1934" stroke="black" stroke-width="3" stroke-linecap="round"/>
</svg>
