<svg width="9" height="9" viewBox="0 0 9 9" fill="none" xmlns="http://www.w3.org/2000/svg">
<path d="M4.5 0C2.0184 0 0 2.0196 0 4.5C0 6.9822 2.0184 9 4.5 9C6.9816 9 9 6.9822 9 4.5C9 2.019 6.9816 0 4.5 0ZM4.5 0.6C4.797 0.6 5.085 0.636 5.3628 0.699C5.4666 0.87 5.565 1.0692 5.64 1.32H3.36C3.4674 1.0512 3.576 0.8496 3.6888 0.6846C3.9504 0.63 4.2216 0.6006 4.5 0.6006V0.6ZM6.072 0.9312C6.31196 1.03741 6.54053 1.16768 6.7542 1.32H6.3C6.234 1.32 6.153 1.1418 6.072 0.9312ZM2.8878 0.951C2.82 1.1538 2.76 1.32 2.7 1.32H2.2452C2.44696 1.17683 2.66193 1.05327 2.8872 0.951H2.8878ZM1.5798 1.92H2.5194C2.4 2.52 2.34 3.12 2.34 3.12H0.8544C1.02139 2.6793 1.2672 2.27268 1.5798 1.92ZM3.1194 1.92H5.8194C5.9394 2.52 5.9994 3.12 6.0594 3.12H2.94C2.94 3.12 3.0594 2.52 3.1194 1.92ZM6.4806 1.92H7.4202C7.73302 2.27263 7.97903 2.67926 8.1462 3.12H6.66C6.6 3.12 6.5406 2.52 6.4806 1.92ZM0.6774 3.72H2.28V4.92H0.6234C0.579916 4.51959 0.598128 4.11488 0.6774 3.72ZM2.88 3.72H6.1188V4.92H2.8806L2.88 3.72ZM6.7188 3.72H8.322C8.40127 4.11488 8.41948 4.51959 8.376 4.92H6.7188V3.72ZM0.738 5.52H2.34C2.4 6.12 2.46 6.72 2.52 6.72H1.293C1.04043 6.35478 0.853095 5.94887 0.738 5.52ZM2.88 5.52H6.06C6.06 6.12 5.94 6.72 5.88 6.72H3.12C3 6.72 2.94 6.12 2.88 5.52ZM6.66 5.52H8.262C8.14691 5.94887 7.95897 6.35478 7.7064 6.72H6.48C6.54 6.72 6.6594 6.12 6.6594 5.52H6.66ZM1.8084 7.32H2.7C2.781 7.725 2.8848 7.926 2.9838 8.0958C2.54786 7.91091 2.14993 7.648 1.8084 7.32ZM3.3 7.32H5.64C5.463 7.7628 5.2848 8.106 5.0838 8.352C4.89066 8.3825 4.69552 8.39854 4.5 8.4C4.2852 8.4 4.0758 8.3784 3.8706 8.3454C3.663 8.1234 3.4818 7.7742 3.3 7.32ZM6.24 7.32H7.1916C6.83194 7.6644 6.40949 7.93653 5.9472 8.1216C6.057 7.9392 6.153 7.7556 6.24 7.32Z" fill="url(#paint0_linear_1_67)"/>
<defs>
<linearGradient id="paint0_linear_1_67" x1="0" y1="4.5006" x2="7.8" y2="4.5006" gradientUnits="userSpaceOnUse">
<stop stop-color="#000092"/>
<stop offset="1" stop-color="#FF00F3"/>
</linearGradient>
</defs>
</svg>
