<svg width="269" height="39" viewBox="0 0 269 39" fill="none" xmlns="http://www.w3.org/2000/svg">
<path d="M2.38034 10.7432C4.32897 10.7432 7.32183 11.5484 8.73414 13.0694C11.3648 15.9024 14.1126 18.0599 17.1125 20.3493C21.0698 23.3693 25.6277 25.6249 30.0786 27.9308C32.2145 29.0373 35.1803 30.6984 37.7032 30.2569C39.2258 29.9905 40.6145 29.3523 42.1831 29.3523C44.8441 29.3523 46.56 30.7701 48.9031 31.2908C52.3495 32.0566 55.672 32.726 59.1984 33.0354C62.0934 33.2893 64.5955 34.0046 67.5122 34.0046C69.1765 34.0046 70.5562 33.3189 72.1644 32.9277C75.3533 32.152 78.795 31.3901 82.0721 31.2908C84.3853 31.2207 86.5214 29.8877 89.0505 30.7308C91.7552 31.6323 94.2285 33.0814 96.9335 33.9831C99.7989 34.9382 102.91 33.8945 105.807 34.6938C107.421 35.1389 108.991 36.9766 110.546 37.1061C112.582 37.2758 115.099 37.3727 117.136 37.02C122.716 36.0543 124.507 29.5657 129.349 27.4139C132.922 25.8257 136.448 24.5932 140.312 23.4939C141.774 23.078 144.069 22.9345 145.352 22.2016C146.633 21.4691 148.955 20.5017 150.478 20.4355C154.103 20.2778 157.061 21.6444 160.493 22.3308C162.313 22.6949 166.714 23.5863 168.484 22.5247C169.617 21.8449 170.655 21.6675 171.801 21.1247C173.015 20.5495 173.66 19.3073 174.816 18.7986C175.342 18.5673 175.466 18.0479 175.678 17.5709C175.858 17.164 176.872 16.9224 177.25 16.7524C178.427 16.2229 179.462 15.3955 180.717 15.3955C184.946 15.3955 188.653 15.6409 191.96 12.6817C193.489 11.3142 194.886 9.841 196.699 8.80478C197.979 8.07316 201.227 7.79836 202.019 6.47864C202.806 5.16599 205.277 4.1525 206.693 4.1525C208.342 4.1525 209.774 4.4083 211.259 5.22942C212.566 5.95249 214.178 7.25402 215.696 7.25402C216.915 7.25402 217.575 7.70587 218.711 7.16787C219.909 6.60042 220.842 6.04124 222.114 5.61711C223.635 5.11029 224.882 4.12393 226.4 3.59251C227.842 3.08805 228.802 3.13285 230.148 2.23559C232.584 0.611695 236.102 3.27927 237.88 4.73404C238.641 5.35651 239.081 6.53728 239.646 7.34017C240.446 8.47697 241.508 9.35608 242.059 10.6571C243.093 13.1017 246.899 11.6293 248.477 11.0448C249.464 10.6791 249.512 9.58016 250.695 9.58016C252.163 9.58016 252.517 9.8249 253.409 10.9155C254.067 11.7195 254.99 11.5186 255.929 11.5186C257.359 11.5186 256.978 11.5655 257.695 12.4878C258.505 13.5282 258.686 14.6841 259.332 15.7832C259.852 16.6671 261.463 16.3103 262.218 16.8601C262.774 17.2644 263.992 18.3623 264.545 18.5832C265.244 18.8629 266.477 18.6566 266.785 19.2724" stroke="black" stroke-width="3" stroke-linecap="round"/>
</svg>
