<svg width="158" height="8" viewBox="0 0 158 8" fill="none" xmlns="http://www.w3.org/2000/svg">
<path d="M1.99066 2.55502C2.72939 2.55502 3.48364 2.15215 4.12877 2.00879C5.02147 1.81041 6.1967 1.99318 7.10964 1.99318C9.28882 1.99318 12.4031 1.85412 14.3667 2.83594C15.6909 3.49803 17.9736 3.19994 19.4701 3.4602C20.9483 3.71728 22.6825 3.95962 24.1833 3.95962C27.5342 3.95962 30.8992 4.52146 34.2964 4.52146C35.6386 4.52146 37.8759 4.51644 39.1033 5.13012C40.3091 5.733 41.1002 6.4879 42.4899 6.4879C43.6395 6.4879 44.7371 6.24767 45.8766 6.20698C47.5533 6.1471 49.223 5.55652 50.8863 5.34861C52.7723 5.11287 54.5674 4.72767 56.4735 4.53706C61.1242 4.07199 65.9754 4.96485 70.5975 4.17811C73.0019 3.76886 75.5279 3.95962 77.9639 3.95962C80.2111 3.95962 82.4922 3.6787 84.7684 3.6787C87.3823 3.6787 90.3444 3.70666 92.9463 4.02204C95.567 4.3397 98.2803 4.16304 100.874 4.66192C105.38 5.52841 110.246 4.60182 114.796 5.30179C116.059 5.49623 117.425 5.36422 118.697 5.36422C119.825 5.36422 120.611 5.92606 121.663 5.92606C124.365 5.92606 126.736 5.36422 129.388 5.36422C130.99 5.36422 132.421 5.92606 133.961 5.92606C135.097 5.92606 135.564 5.67753 136.551 5.39543C138.742 4.7695 141.072 4.89021 143.356 4.80238C144.586 4.75506 145.751 4.14578 146.945 3.97522C147.956 3.83079 148.943 3.96395 149.879 3.53824C151.722 2.70061 153.989 3.66491 155.654 2.55502" stroke="black" stroke-width="3" stroke-linecap="round"/>
</svg>
