<svg width="8" height="6" viewBox="0 0 8 6" fill="none" xmlns="http://www.w3.org/2000/svg">
<path d="M6.75 2.3125C6.83288 2.3125 6.91236 2.27958 6.97097 2.22097C7.02957 2.16237 7.0625 2.08288 7.0625 2V0.4375C7.0625 0.417031 7.06031 0.396406 7.0564 0.37625C7.05437 0.366875 7.05093 0.358281 7.04828 0.349219C7.04515 0.33875 7.04281 0.328125 7.03859 0.317969C7.03406 0.307344 7.02796 0.2975 7.02234 0.2875C7.01812 0.279688 7.01468 0.271563 7.00984 0.264375C6.98682 0.230031 6.95731 0.20052 6.92296 0.1775C6.91562 0.172656 6.9075 0.169219 6.89984 0.165C6.88984 0.159531 6.88 0.153438 6.86937 0.14875C6.85921 0.144688 6.84859 0.142188 6.83812 0.139063C6.82906 0.136406 6.82046 0.132969 6.81109 0.130938C6.79095 0.127082 6.7705 0.125095 6.75 0.125H5.1875C5.10461 0.125 5.02513 0.157924 4.96652 0.216529C4.90792 0.275134 4.87499 0.35462 4.87499 0.4375C4.87499 0.52038 4.90792 0.599866 4.96652 0.658471C5.02513 0.717076 5.10461 0.75 5.1875 0.75H5.99562L2.99999 3.74563L2.28343 3.02906C2.22483 2.97048 2.14536 2.93757 2.06249 2.93757C1.97963 2.93757 1.90016 2.97048 1.84156 3.02906L0.279057 4.59156C0.24921 4.62039 0.225403 4.65487 0.209026 4.693C0.192648 4.73113 0.184027 4.77213 0.183667 4.81363C0.183306 4.85512 0.191213 4.89627 0.206926 4.93467C0.222638 4.97308 0.245842 5.00797 0.275184 5.03731C0.304525 5.06665 0.339417 5.08986 0.377822 5.10557C0.416227 5.12128 0.457377 5.12919 0.49887 5.12883C0.540364 5.12847 0.58137 5.11985 0.619496 5.10347C0.657622 5.08709 0.692105 5.06329 0.720932 5.03344L2.06249 3.69188L2.77906 4.40844C2.83766 4.46702 2.91713 4.49993 2.99999 4.49993C3.08286 4.49993 3.16233 4.46702 3.22093 4.40844L6.4375 1.19187V2C6.4375 2.08288 6.47042 2.16237 6.52902 2.22097C6.58763 2.27958 6.66711 2.3125 6.75 2.3125Z" fill="url(#paint0_linear_9_295)"/>
<defs>
<linearGradient id="paint0_linear_9_295" x1="3.62308" y1="0.125" x2="3.62308" y2="5.12884" gradientUnits="userSpaceOnUse">
<stop stop-color="#FFE603"/>
<stop offset="1" stop-color="#FF9900"/>
</linearGradient>
</defs>
</svg>
