<svg width="17" height="12" viewBox="0 0 17 12" fill="none" xmlns="http://www.w3.org/2000/svg">
<path d="M7.15789 6C7.15789 6.25385 6.95658 6.46154 6.71053 6.46154H2.68421C2.43816 6.46154 2.23684 6.25385 2.23684 6C2.23684 5.74615 2.43816 5.53846 2.68421 5.53846H6.71053C6.95658 5.53846 7.15789 5.74615 7.15789 6ZM5.81579 8.76923H2.68421C2.43816 8.76923 2.23684 8.97692 2.23684 9.23077C2.23684 9.48462 2.43816 9.69231 2.68421 9.69231H5.81579C6.06184 9.69231 6.26316 9.48462 6.26316 9.23077C6.26316 8.97692 6.06184 8.76923 5.81579 8.76923ZM6.71053 2.30769H2.68421C2.43816 2.30769 2.23684 2.51538 2.23684 2.76923C2.23684 3.02308 2.43816 3.23077 2.68421 3.23077H6.71053C6.95658 3.23077 7.15789 3.02308 7.15789 2.76923C7.15789 2.51538 6.95658 2.30769 6.71053 2.30769ZM17 0.461538V11.5385C17 11.7923 16.7987 12 16.5526 12H0.447368C0.201316 12 0 11.7923 0 11.5385V0.461538C0 0.207692 0.201316 0 0.447368 0H16.5526C16.7987 0 17 0.207692 17 0.461538ZM16.1053 0.923077H0.894737V11.0769H16.1053V0.923077ZM14.7408 9.23077C14.7408 9.48462 14.5395 9.69231 14.2934 9.69231H8.05263C7.80658 9.69231 7.60526 9.48462 7.60526 9.23077C7.60526 7.70769 8.47763 6.41538 9.75263 5.83846C9.32763 5.4 9.03684 4.8 9.03684 4.15385C9.03684 2.93077 10.0211 1.84615 11.1618 1.84615C12.3026 1.84615 13.2868 2.93077 13.2868 4.15385C13.2868 4.8 13.0184 5.4 12.5711 5.83846C13.8461 6.41538 14.7408 7.70769 14.7408 9.23077ZM9.93158 4.15385C9.93158 4.8 10.4684 5.53846 11.1618 5.53846C11.8553 5.53846 12.3921 4.8 12.3921 4.15385C12.3921 3.50769 11.8553 2.76923 11.1618 2.76923C10.4684 2.76923 9.93158 3.50769 9.93158 4.15385ZM13.8237 8.76923C13.6224 7.45385 12.5039 6.46154 11.1842 6.46154C9.86447 6.46154 8.76842 7.45385 8.54474 8.76923H13.8237Z" fill="url(#paint0_linear_1_19)"/>
<defs>
<linearGradient id="paint0_linear_1_19" x1="-1.82953e-07" y1="-1" x2="8.5" y2="12" gradientUnits="userSpaceOnUse">
<stop stop-color="#FF0000"/>
<stop offset="1" stop-color="#FF9900"/>
</linearGradient>
</defs>
</svg>
