<svg width="10" height="10" viewBox="0 0 10 10" fill="none" xmlns="http://www.w3.org/2000/svg">
<path d="M9.6875 9.375H0.625V8.125H1.25C1.33288 8.125 1.41237 8.09208 1.47097 8.03347C1.52958 7.97487 1.5625 7.89538 1.5625 7.8125C1.5625 7.72962 1.52958 7.65013 1.47097 7.59153C1.41237 7.53292 1.33288 7.5 1.25 7.5H0.625V6.5625C0.70788 6.5625 0.787366 6.52958 0.845971 6.47097C0.904576 6.41237 0.9375 6.33288 0.9375 6.25C0.9375 6.16712 0.904576 6.08763 0.845971 6.02903C0.787366 5.97042 0.70788 5.9375 0.625 5.9375V5H1.25C1.33288 5 1.41237 4.96708 1.47097 4.90847C1.52958 4.84987 1.5625 4.77038 1.5625 4.6875C1.5625 4.60462 1.52958 4.52513 1.47097 4.46653C1.41237 4.40792 1.33288 4.375 1.25 4.375H0.625V3.4375C0.70788 3.4375 0.787366 3.40458 0.845971 3.34597C0.904576 3.28737 0.9375 3.20788 0.9375 3.125C0.9375 3.04212 0.904576 2.96263 0.845971 2.90403C0.787366 2.84542 0.70788 2.8125 0.625 2.8125V1.875H1.25C1.33288 1.875 1.41237 1.84208 1.47097 1.78347C1.52958 1.72487 1.5625 1.64538 1.5625 1.5625C1.5625 1.47962 1.52958 1.40013 1.47097 1.34153C1.41237 1.28292 1.33288 1.25 1.25 1.25H0.625V0.3125C0.625 0.22962 0.592076 0.150134 0.533471 0.0915291C0.474866 0.032924 0.39538 0 0.3125 0C0.22962 0 0.150134 0.032924 0.0915291 0.0915291C0.032924 0.150134 0 0.22962 0 0.3125L0 9.375C0 9.71969 0.280312 10 0.625 10H9.6875C9.77038 10 9.84987 9.96708 9.90847 9.90847C9.96708 9.84987 10 9.77038 10 9.6875C10 9.60462 9.96708 9.52513 9.90847 9.46653C9.84987 9.40792 9.77038 9.375 9.6875 9.375Z" fill="url(#paint0_linear_9_217)"/>
<defs>
<linearGradient id="paint0_linear_9_217" x1="5" y1="0" x2="5" y2="10" gradientUnits="userSpaceOnUse">
<stop stop-color="#FFE603"/>
<stop offset="1" stop-color="#FF9900"/>
</linearGradient>
</defs>
</svg>
